<svg width="24" height="24" viewBox="0 0 24 24" fill="none" xmlns="http://www.w3.org/2000/svg">
<path d="M12 2.4C10.0904 2.4 8.25909 3.15857 6.90883 4.50883C5.55856 5.85909 4.79999 7.69044 4.79999 9.6V13.9032L3.95159 14.7516C3.78382 14.9194 3.66958 15.1332 3.62329 15.366C3.57701 15.5987 3.60078 15.8399 3.69158 16.0592C3.78239 16.2784 3.93615 16.4658 4.13344 16.5977C4.33074 16.7295 4.56269 16.8 4.79999 16.8H19.2C19.4373 16.8 19.6693 16.7295 19.8665 16.5977C20.0638 16.4658 20.2176 16.2784 20.3084 16.0592C20.3992 15.8399 20.423 15.5987 20.3767 15.366C20.3304 15.1332 20.2162 14.9194 20.0484 14.7516L19.2 13.9032V9.6C19.2 7.69044 18.4414 5.85909 17.0912 4.50883C15.7409 3.15857 13.9096 2.4 12 2.4V2.4ZM12 21.6C11.0452 21.6 10.1295 21.2207 9.45441 20.5456C8.77928 19.8705 8.39999 18.9548 8.39999 18H15.6C15.6 18.9548 15.2207 19.8705 14.5456 20.5456C13.8704 21.2207 12.9548 21.6 12 21.6Z" fill="#111827"/>
</svg>
